<svg width="2500" height="5000" viewBox="0 0 2500 5000" fill="none" xmlns="http://www.w3.org/2000/svg">
<g clip-path="url(#clip0_108_3)">
<rect width="2500" height="5000" fill="white"/>
<rect width="2500" height="5000" fill="white"/>
<path d="M2528.91 -965.401C2739.45 -921.442 2899.33 -767.219 3052.99 -616.705C3228.79 -444.507 3434.16 -277.593 3478.27 -35.4841C3525.06 221.38 3438.23 488.454 3293.97 706.062C3149.62 923.79 2941.45 1130.78 2682.47 1164.88C2436.03 1197.34 2245.93 967.649 2015.5 874.419C1821.2 795.806 1590.01 808.558 1439.98 662.178C1279.99 506.075 1215.17 282.094 1181.87 61.0487C1145.16 -182.593 1084.5 -467.413 1241.14 -657.597C1397.12 -846.982 1694.09 -793.573 1932.71 -850.607C2134.48 -898.836 2325.82 -1007.8 2528.91 -965.401Z" fill="#1877F2"/>
<path d="M1065.87 4503.08C1150.93 4700.63 1116.65 4920.1 1081.82 5132.36C1041.98 5375.2 1023.47 5639.2 850.716 5814.47C667.438 6000.42 398.99 6082.9 137.999 6089.95C-123.135 6097.01 -412.175 6045.66 -588.958 5853.36C-757.185 5670.36 -678.522 5382.78 -734.702 5140.63C-782.073 4936.46 -925.414 4754.61 -891.884 4547.7C-856.127 4327.05 -710.114 4145.26 -548.389 3990.94C-370.131 3820.84 -171.948 3607.47 73.7136 3626.31C318.343 3645.07 445.363 3918.77 629.202 4081.23C784.659 4218.61 983.816 4312.53 1065.87 4503.08Z" fill="#1877F2"/>
</g>
<defs>
<clipPath id="clip0_108_3">
<rect width="2500" height="5000" fill="white"/>
</clipPath>
</defs>
</svg>
